<?xml version="1.0" standalone="yes"?>
<svg xmlns="http://www.w3.org/2000/svg" width="300" height="300">
<path style="fill:#000000; stroke:none;" d="M0 0L0 300L300 300L300 0L0 0z"/>
<path style="fill:#a8cc54; stroke:none;" d="M111 39L112 36C103.591 36.4539 87.5304 44.0616 86 53L64 66C66.7969 70.6834 63.1222 72.1359 59 70L49 85L52 86L50 92L46 90C40.2582 103.81 34.3604 117.713 38 133L36 132C36.4713 139.728 33.0891 146.52 32.1844 154C30.8452 165.072 32.5057 177.99 37.0741 188.17C39.8353 194.323 51.0161 199.427 44 206C47.4457 220.48 46.8486 233.384 60 244C65.3281 240.554 68.8251 244.96 63 248C70.9389 264.661 92.9767 264.393 108 267.379C116.052 268.979 122.543 272.93 131 273C130.099 269.816 130.114 268.705 133 267L133 266C124.81 267.087 116.876 260.246 109 257.642C104.676 256.212 101.594 258.188 100 253L106 255L111 253L111 252L85.0285 236.455L74 226L78 236L76 235L77 239L70 240L67 233L66 233L64 239C59.6581 235.689 58.9321 233.02 61 228C57.0902 228 55 218.625 55 215C63.5301 218.652 65.9034 229.293 70 237L75 235L75 234L72 234C71.5852 227.746 67.3338 223.788 65.8935 218C63.9864 210.336 67.1 206.46 61 200L60 200L60 205C54.1179 205.3 51.4446 202.892 51 197L50 197L50 201L49 201C47.1347 195.314 45.9523 183.804 40 182L39 172L38 172L38 176L37 176L37 149L40.5 130.167L39 131L38 131L38 120L39 120L39 123L42 119C50.6637 127.061 41.3443 131.604 42.0625 140.981C42.3882 145.234 46.0132 145.643 47.3827 149.144C48.9478 153.144 47.6949 160.792 47 165L45 165L43 159L42 159L39 166L40 166L40 162L42.4792 176L49 188L46 187L46 188L48 195C50.2878 194.058 50.6583 193.437 51 196L52 196L53 188L53 187C46.4 175.278 49.4599 168.206 51.5077 156C53.1994 145.917 53.3399 137.164 57.9691 127.715C59.7791 124.02 59.4449 119.37 62.3171 116.228C65.3044 112.959 72.9808 106.542 77.0046 104.879C81.3916 103.066 86.6696 103.742 90.8565 101.427C96.2146 98.4661 97.0827 94.0415 104 93C107.101 87.3521 119.216 80.2481 126 80.892C129.3 81.2052 131.617 84.3367 135 84.2716C140.544 84.165 145.281 78.8756 151 79.2014C159.704 79.6973 170.191 85.6069 178 89.2176C183.261 91.6504 188.869 91.8478 193.996 94.7948C203.708 100.376 207.462 112.497 208 123L209 123C209 106.716 205.895 94.196 190.046 87.3796C187.743 86.3889 187.131 85.3555 189 84C181.792 75.4915 173.527 73.323 164.054 68.5748C156.958 65.0179 154.838 60.9807 146 62L148 56L118 62L118 65L141 61L140 64C149.511 67.2207 164.805 68.0617 170 78L140.09 70.2816L129.015 67.1481L114 77.4668L104.103 80.0478L88 94L88 90C78.8882 91.8123 76.09 97.881 70 88L79 87L80 87C80.1689 81.4848 84.3543 79.9449 89 78L89 77L61 85C62.4213 90.1773 58.8235 96.7469 55 90L54 90L49 103C47.259 100.162 46.2993 99.4916 43 100L46 92L47 92L47 95C54.0273 91.3494 66.0873 74.4581 69 67L74 71L84 66L84 65C79.8182 64.3482 77.1864 60.9823 82.1373 58.3387C86.5363 55.9899 92.2328 56.4088 97 54L97 60L98 60C98.3006 56.0481 99.1177 54.1776 103 53L107 47L101 50C101.183 45.7047 103.193 43.8007 107 42L107 46L108 46C115.629 38.3861 129.156 39.9989 139 40L139 41L137 42L151 49L152 49L155 45L149 40C153.624 39.5167 156.782 41.118 157 46L159 52L163 50L177 58L182 60L192 63L192 59L210 67L205 69L232 84L231 75L240 80L236 81L244 96L245 96L245 92C248.324 93.6088 249.192 96.1851 245 97L246 108L247 108L250 94L251 94L253 99L249 103L250 103C255.263 97.178 258.114 88.8595 249 84L252 92L249 91L245 81C249.475 76.9093 238.609 61.4325 235 58C237.153 65.8739 226.698 63.7729 233 56C223.887 49.8777 213.005 46.4725 202 46L202 47L212 48L212 49L209 50L209 52L214 58L215 58C217.712 52.739 225.069 55.6151 222.744 60.6396C221.44 63.4565 216.653 61.6606 214.615 60.8287C207.492 57.9209 200.719 51.8949 195 47L196 53L185 44L187 46L188 46L175 35L183 36C178.378 31.127 171.32 30.9544 165 29.9197C146.249 26.85 128.094 32.7211 111 39z"/>
<path style="fill:#f7fbf1; stroke:none;" d="M142 34C127.796 30.666 138.862 43.456 142 34M160 33C161.739 43.6512 173.035 33.4244 160 33z"/>
<path style="fill:#5cae4a; stroke:none;" d="M156 34L153 35L153 36L156 34z"/>
<path style="fill:#000000; stroke:none;" d="M175 35L175 36L179 36L175 35z"/>
<path style="fill:#f7fbf1; stroke:none;" d="M176 36L180 39L176 36z"/>
<path style="fill:#5cae4a; stroke:none;" d="M102 51C106.914 60.4235 97.7472 63.8701 97 54L88 57C87.8867 64.0093 79.6116 69.3018 73 70C70.7889 71.89 70.2111 71.89 68 70L67 70C62.4501 76.1299 57.086 81.5114 52.9113 87.9985C51.4467 90.2742 49.6005 94.5759 47 92L46 92L43 100L49 103L57.3048 86.5378L67.0008 84.3966L89 77L89 78L75 90L75 86L70 88C74.8253 98.4528 79.5322 92.802 88 90L88 94L104.104 80.7662L114.83 77.5278L130.003 67.1667L156 77L156 76C149.037 72.7751 147.265 67.5043 139 71C137.088 66.4938 134.676 66.0554 130 66L130 65C139.287 65 149.368 66.4868 158 70.0833C160.365 71.0686 169.97 75.0922 166 77L166 78L170 78C166.835 67.9414 148.761 66.2667 140 64L141 61L119 63L114 64C115.543 61.3978 116.998 60.3183 119 63L148 56L146 62C154.305 61.5847 156.477 65.0755 163.129 68.5748C172.773 73.6486 180.403 76.8392 189 84C186.525 84.513 186.425 84.6038 187 87L188 87L190 85L182 78L183 74C195.155 79.3893 213.846 83.2376 217 96C210.781 95.7618 206.074 94.3031 207 87L201 88C203.087 92.5533 205.888 96.1758 211 97L216 110C210.436 111.854 213.407 116.871 215.594 120.83C221.207 130.989 220.73 155.529 231 162L227 133L228 133L228 139L230 138C230.9 142.498 235.885 154.688 235 160C234.34 163.958 233.068 166.73 232 171C231.024 174.902 231.461 180.865 228 180L221 199C212.788 202.114 207.461 209.808 198 209L198 210L200 211L190 214C192.243 217.361 195.298 216.279 199 216L199 219L199 220L190 224L189 224L184 222L184 223L199.015 220.963L214.83 216.16L250 176L248 189C255.436 184.516 253.243 176.084 255.167 169.058C256.634 163.7 262.876 162.662 263.451 156C264.472 144.174 257.579 133.707 258 122C252.586 123.396 251.797 118.297 257 117L256 109C249.557 107.994 247.909 103.258 253 99L251 94L250 94L246 113L249 110L250 110C251.942 113.738 252.622 118.614 247 116C238.299 118.428 230.232 95.3734 246 102C245.193 93.8997 240.435 87.5793 236 81L240 80L239 77L231 75L232 84C222.686 77.3018 217.145 70.6435 205 69L210 67C206.15 60.8682 198.434 60.4268 192 59L192 63C187.315 61.802 178.235 61.152 178 56C173.224 54.8098 168.647 51.7911 164 50.912C160.642 50.2768 157.451 52.8335 154.129 51.4977C151.192 50.3167 150.013 46.9545 146.946 45.8727C141.885 44.0874 137.023 46.4828 134 41L139 41C124.852 35.0609 112.482 43.2491 102 51z"/>
<path style="fill:#f7fbf1; stroke:none;" d="M149 40L155 45L151 49L151 50C155.465 52.367 163.618 50.4525 157 46C157.785 40.7037 153.738 38.9167 149 40z"/>
<path style="fill:#a8cc54; stroke:none;" d="M126 41L126 42L131 46C131.754 42.4181 129.19 41.5065 126 41M134 41L135 45L136 45L134 41z"/>
<path style="fill:#f7fbf1; stroke:none;" d="M135 41L139 45L135 41M187 42C188.623 46.0359 191.049 46.1314 195 45C192.489 42.1606 190.749 41.3036 187 42M101 50C105.266 48.501 106.659 46.4793 107 42C102.665 43.2314 100.346 45.3847 101 50z"/>
<path style="fill:#a8cc54; stroke:none;" d="M124 42L122 45L124 42z"/>
<path style="fill:#f7fbf1; stroke:none;" d="M125.159 43.0463C120.572 45.6443 124.676 50.6201 128.681 47.9684C132.528 45.4215 128.92 40.9162 125.159 43.0463M163 42L167 47L168 44L163 42z"/>
<path style="fill:#5cae4a; stroke:none;" d="M185 44L191 49L193 47L193 46L185 44z"/>
<path style="fill:#a8cc54; stroke:none;" d="M194 45L193 47L194 45z"/>
<path style="fill:#5cae4a; stroke:none;" d="M194 46L216 62C214.73 57.2778 213.558 54.1618 209 52L209 50L212 49L194 46z"/>
<path style="fill:#a8cc54; stroke:none;" d="M196 45L196 46L201 46L196 45M117 46L116 49L117 49L117 46z"/>
<path style="fill:#f7fbf1; stroke:none;" d="M117 50L121 46L117 50z"/>
<path style="fill:#5cae4a; stroke:none;" d="M207 46L208 47L207 46z"/>
<path style="fill:#a8cc54; stroke:none;" d="M122 47L110 59C121.867 54.1315 132.072 51.0014 145 51L145 50L122 47z"/>
<path style="fill:#f7fbf1; stroke:none;" d="M172 48C173.522 51.9914 175.967 53.0217 180 54C180.788 48.4888 176.944 46.698 172 48z"/>
<path style="fill:#a8cc54; stroke:none;" d="M191 47L192 48L191 47z"/>
<path style="fill:#f7fbf1; stroke:none;" d="M196 53C197.201 44.7881 187.394 49.8311 196 53z"/>
<path style="fill:#5cae4a; stroke:none;" d="M216 48L217 49L216 48M87 50L86 52L87 50z"/>
<path style="fill:#a8cc54; stroke:none;" d="M151 50L152 51L151 50z"/>
<path style="fill:#f7fbf1; stroke:none;" d="M125 53L125 55C128.618 55.8095 130.194 55.2722 132 52L125 53z"/>
<path style="fill:#a8cc54; stroke:none;" d="M152 51L153 52L152 51z"/>
<path style="fill:#5cae4a; stroke:none;" d="M85 52L86 53L85 52z"/>
<path style="fill:#a8cc54; stroke:none;" d="M155.667 52.3333L156.333 52.6667L155.667 52.3333z"/>
<path style="fill:#5cae4a; stroke:none;" d="M97 53L98 54L97 53z"/>
<path style="fill:#f7fbf1; stroke:none;" d="M98 61C110.659 60.0343 98.1726 46.4372 98 61M218.133 54.1759C212.888 54.8799 216.475 62.826 220.867 62.4537C226.068 62.0128 222.486 53.5918 218.133 54.1759z"/>
<path style="fill:#a8cc54; stroke:none;" d="M131 54L132 55L131 54M125 55L126 56L125 55M130 55L131 56L130 55M105.333 56.6667L105.667 57.3333L105.333 56.6667z"/>
<path style="fill:#f7fbf1; stroke:none;" d="M82.1296 57.8773C77.5566 59.832 78.629 66.3495 83.9568 64.3773C89.0079 62.5075 87.6414 55.5214 82.1296 57.8773M177 58L182 61C181 57.9641 180.137 57.5057 177 58M231.318 58.1752C227.42 60.0338 231.036 65.9044 234.667 63.8634C238.124 61.9206 234.637 56.5923 231.318 58.1752z"/>
<path style="fill:#a8cc54; stroke:none;" d="M88.3333 59.6667L88.6667 60.3333L88.3333 59.6667M104 59L105 60L104 59M177 59L178 60L177 59M215 59L216 60L215 59M103 60L104 61L103 60M116 60L117 61L116 60z"/>
<path style="fill:#f7fbf1; stroke:none;" d="M114 64L119 60L114 64z"/>
<path style="fill:#a8cc54; stroke:none;" d="M99 61L99 62L102 62L99 61M114 61L115 62L114 61z"/>
<path style="fill:#f7fbf1; stroke:none;" d="M164.623 62.0394C161.165 64.722 166.647 68.7592 169.664 66.9321C173.93 64.3478 167.847 59.5374 164.623 62.0394z"/>
<path style="fill:#a8cc54; stroke:none;" d="M169.667 61.3333L170.333 61.6667L169.667 61.3333M179.667 61.3333L180.333 61.6667L179.667 61.3333M87 62L88 63L87 62M171 62L172 63L171 62M86 63L87 64L86 63M116 63L117 64L116 63z"/>
<path style="fill:#208e45; stroke:none;" d="M138 63L139 64L138 63M161 63L164 68L164 67L161 63z"/>
<path style="fill:#a8cc54; stroke:none;" d="M162.333 63.6667L162.667 64.3333L162.333 63.6667M85 64L86 65L85 64M99 64L99 65L102 65L99 64M97 65L96 67L97 65z"/>
<path style="fill:#f7fbf1; stroke:none;" d="M96 67L96 68C101.175 73.4608 103.855 72.4346 103 65L96 67z"/>
<path style="fill:#208e45; stroke:none;" d="M130 65L130 66C134.532 66.1476 136.581 67.1191 139 71L169 77C162.038 66.7026 141.286 65.0012 130 65z"/>
<path style="fill:#5cae4a; stroke:none;" d="M162.333 65.6667L162.667 66.3333L162.333 65.6667z"/>
<path style="fill:#a8cc54; stroke:none;" d="M193 65L194 66L193 65z"/>
<path style="fill:#f7fbf1; stroke:none;" d="M193 66L200 71C198.85 67.036 197.167 65.4033 193 66z"/>
<path style="fill:#a8cc54; stroke:none;" d="M197 65L198 66L197 65z"/>
<path style="fill:#f7fbf1; stroke:none;" d="M61.3465 67.1319C57.9805 69.0359 61.6744 73.0146 64.5887 70.9684C67.4453 68.9627 63.8932 65.6913 61.3465 67.1319z"/>
<path style="fill:#5cae4a; stroke:none;" d="M72 66L74 68L74 66L72 66z"/>
<path style="fill:#a8cc54; stroke:none;" d="M103 66L104 67L103 66M163 66L164 67L163 66M171 66L172 67L171 66M198 66L199 67L198 66z"/>
<path style="fill:#f7fbf1; stroke:none;" d="M219 68L219 69L226 70L226 68L219 68M69 67L70 73C72.6667 70.3118 72.8134 68.2797 69 67z"/>
<path style="fill:#a8cc54; stroke:none;" d="M165 67L166 68L165 67M170 67L171 68L170 67M186 67L187 68L186 67M199 67L200 68L199 67z"/>
<path style="fill:#f7fbf1; stroke:none;" d="M233.275 68.1759C229.357 70.1608 232.611 77.9733 236.4 75.8241C239.524 74.0526 237.125 66.2253 233.275 68.1759z"/>
<path style="fill:#a8cc54; stroke:none;" d="M96 68L97 69L96 68z"/>
<path style="fill:#208e45; stroke:none;" d="M123 68L119 70L119 71L123 68M170.333 68.6667L170.667 69.3333L170.333 68.6667z"/>
<path style="fill:#f7fbf1; stroke:none;" d="M185 68L190 71L185 68z"/>
<path style="fill:#a8cc54; stroke:none;" d="M188 68L189 69L188 68M200 68L200 71L201 71L200 68M97 69L98 70L97 69M185 69L186 70L185 69M189 69L190 70L189 69M194 69L195 70L194 69M104 70L105 71L104 70z"/>
<path style="fill:#208e45; stroke:none;" d="M171 70L171 71L174 71L171 70z"/>
<path style="fill:#a8cc54; stroke:none;" d="M68 71L69 72L68 71M72 71L73 72L72 71z"/>
<path style="fill:#208e45; stroke:none;" d="M117 71L106 76L106 77C111.234 78.2585 116.986 77.763 117 71M175.667 71.3333L176.333 71.6667L175.667 71.3333z"/>
<path style="fill:#a8cc54; stroke:none;" d="M187.667 71.3333L188.333 71.6667L187.667 71.3333M198 71L199 72L198 71z"/>
<path style="fill:#5cae4a; stroke:none;" d="M229.333 71.6667L229.667 72.3333L229.333 71.6667z"/>
<path style="fill:#a8cc54; stroke:none;" d="M69 72L70 73L69 72M71 72L72 73L71 72M103 72L104 73L103 72z"/>
<path style="fill:#208e45; stroke:none;" d="M178 72L182 75L178 72z"/>
<path style="fill:#5cae4a; stroke:none;" d="M230 73L231 74L230 73z"/>
<path style="fill:#f7fbf1; stroke:none;" d="M93 78L96 74L93 78z"/>
<path style="fill:#208e45; stroke:none;" d="M183 74L182 78C185.347 79.7721 190.441 82.2058 187 86C205.021 93.0439 209.987 105.08 210 124C205.724 119.455 205.658 112.939 206 107L195.895 96.3256L181 90.787L152 79.7191L135.996 84.3248L124 81.5833L105 90C100.019 99.1221 85.0207 104.651 75 106L66 130L67 130C69.5895 124.494 72.7374 125.602 78 124L70 140C55.7662 144.496 63.6764 167.722 64 177L65 177L74 156C73.177 165.439 69.6201 174.645 73.75 183.985C78.0261 193.657 95.1712 208.387 90 220C94.8096 220.205 97.3189 223.21 100 227L101 227L97 203L116 227C119.198 224.802 142.513 232.119 145 236L153 235L151 231L174 227L172 223L189 224L190 224L199 220L199 219L199 216L190 214L200 211L200 210L176.91 219.87L155 223C158.154 218.074 165.076 218.917 169.985 216.567C173.124 215.065 175.003 211.979 178.09 210.433C190.771 204.08 201.478 201.756 211.489 191.206C215.453 187.029 221.198 184.344 222.106 178C223.467 168.499 220.118 158.155 218 149C224.662 155.085 226.443 166.318 226 175L229 181L230 181C233.226 169.623 235.683 159.582 231.986 148.005C231.071 145.14 231.111 139.477 228 139L228 133L227 133L231 162C221.41 152.872 224.284 136.046 219.016 125.17C216.791 120.576 209.436 113.761 216 110L211 97L201 88L207 87C199.99 80.52 191.999 76.9282 183 74z"/>
<path style="fill:#f7fbf1; stroke:none;" d="M208 74C209.419 77.7104 211.09 78.739 215 78L208 74z"/>
<path style="fill:#5cae4a; stroke:none;" d="M55.3333 76.6667L55.6667 77.3333L55.3333 76.6667z"/>
<path style="fill:#a8cc54; stroke:none;" d="M95 76L96 77L95 76z"/>
<path style="fill:#5cae4a; stroke:none;" d="M161 76L162 77L161 76z"/>
<path style="fill:#a8cc54; stroke:none;" d="M208 76L209 77L208 76M213.667 76.3333L214.333 76.6667L213.667 76.3333M92 77L93 78L92 77M94 77L95 78L94 77z"/>
<path style="fill:#5cae4a; stroke:none;" d="M157 77L157 78L160 78L157 77M162 77L162 78L165 78L162 77z"/>
<path style="fill:#a8cc54; stroke:none;" d="M215 77L216 78L215 77z"/>
<path style="fill:#208e45; stroke:none;" d="M103 78L89 93C93.0118 90.8098 103.144 82.7276 103 78z"/>
<path style="fill:#a8cc54; stroke:none;" d="M210 78L211 79L210 78M214 78L215 79L214 78z"/>
<path style="fill:#5cae4a; stroke:none;" d="M146 79L146 80L151 80L146 79M153.667 79.3333L154.333 79.6667L153.667 79.3333M52 80L53 81L52 80M124 80L124 81L128 81L124 80M145 80L146 81L145 80M155 80L156 81L155 80M122.667 81.3333L123.333 81.6667L122.667 81.3333M128 81L129 82L128 81M140.667 81.3333L141.333 81.6667L140.667 81.3333M144 81L145 82L144 81M156 81L157 82L156 81M119.667 82.3333L120.333 82.6667L119.667 82.3333M129.667 82.3333L130.333 82.6667L129.667 82.3333M139 82L140 83L139 82M142 82L143 83L142 82M157 82L157 83L162 83L157 82M50 83L51 84L50 83M114 83L114 84L119 84L114 83M131 83L132 84L131 83M138 83L139 84L138 83M163.667 83.3333L164.333 83.6667L163.667 83.3333z"/>
<path style="fill:#a8cc54; stroke:none;" d="M59 84L60 85L59 84z"/>
<path style="fill:#f7fbf1; stroke:none;" d="M76 90L79 84C76.0594 85.6201 75.5009 86.6858 76 90z"/>
<path style="fill:#5cae4a; stroke:none;" d="M113 84L114 85L113 84M132 84L133 85L132 84M136.667 84.3333L137.333 84.6667L136.667 84.3333M166 84L166 85L169 85L166 84z"/>
<path style="fill:#f7fbf1; stroke:none;" d="M48 85C46.5656 88.485 46.6334 90.0949 50 92L52 86L48 85z"/>
<path style="fill:#a8cc54; stroke:none;" d="M57 85L56 87L57 85z"/>
<path style="fill:#f7fbf1; stroke:none;" d="M58.1844 86.1759C54.4461 87.8871 54.8924 95.12 59.74 93.1991C63.5936 91.672 62.4552 84.2211 58.1844 86.1759z"/>
<path style="fill:#5cae4a; stroke:none;" d="M112.333 85.6667L112.667 86.3333L112.333 85.6667M170 85L171 86L170 85z"/>
<path style="fill:#a8cc54; stroke:none;" d="M208 85L207 87L208 85z"/>
<path style="fill:#f7fbf1; stroke:none;" d="M209.314 86.1366C204.663 88.5992 208.655 97.265 213.567 95.338C218.5 93.4027 214.332 83.4798 209.314 86.1366z"/>
<path style="fill:#a8cc54; stroke:none;" d="M212 85L213 86L212 85z"/>
<path style="fill:#5cae4a; stroke:none;" d="M172 86L173 87L172 86z"/>
<path style="fill:#a8cc54; stroke:none;" d="M214 86L215 87L214 86z"/>
<path style="fill:#5cae4a; stroke:none;" d="M111 87L112 88L111 87M132 87L132 88L136 89L136 88L132 87M140 87L140 88L143 88L140 87M174 87L175 88L174 87M189.667 87.3333L190.333 87.6667L189.667 87.3333M192 87L192 88L195 88L192 87z"/>
<path style="fill:#a8cc54; stroke:none;" d="M55 88L56 89L55 88z"/>
<path style="fill:#f7fbf1; stroke:none;" d="M67 88L64 96C67.9278 96.5133 66.033 103.198 70.0278 102.556C78.036 101.267 70.993 89.5719 67 88z"/>
<path style="fill:#a8cc54; stroke:none;" d="M78 88L79 89L78 88z"/>
<path style="fill:#5cae4a; stroke:none;" d="M110 88L111 89L110 88M127 91L131 89L127 91z"/>
<path style="fill:#a8cc54; stroke:none;" d="M101 115L102 115C104.952 109.309 110.129 103.699 116 101L116 105C124.298 103.263 141.986 89.3579 132 107L133 108C140.157 105.276 145.27 102.342 153 105C148.005 110.563 140.709 110.535 139 119L157 116L156 120L167 127C167.563 134.154 183.747 148.679 169 151C174.176 168.027 159.613 159.351 151 163L150 160C137.485 163.495 143.128 134.532 151 150L147 152L147 153C152.073 156.39 155.576 156.871 161 154C158.162 148.265 154.95 147.919 156 141L143 141L152 134L153 134L163 139C158.562 133.026 149.395 126.199 144 135L139 131L124 140L123 137L110 148C114.819 158.311 122.339 165.612 133 169C127.967 161.652 125.205 160.517 125 151C136.447 149.455 130.654 156.933 133.238 162.701C134.595 165.732 138.701 166.206 139.965 169.595C140.955 172.251 139.736 176.138 142.586 177.918C150.287 182.728 164.516 168.952 171 166L155 183C163.429 179.937 181.525 173.607 185.415 164.896C188.147 158.779 185.724 153.102 187 147L191 150C190.308 142.138 181.797 119.858 175.467 114.743C172.104 112.025 159.599 115.408 158.006 111.467C156.521 107.794 163.298 105.4 165 103L174 108L172 99L180 102C173.586 89.6359 167.809 92.7586 156.985 91.2461C136.85 88.4325 105.831 88.2342 101 115z"/>
<path style="fill:#5cae4a; stroke:none;" d="M137.667 88.3333L138.333 88.6667L137.667 88.3333M144 88L145 89L144 88M176 88L177 89L176 88M195 88L196 89L195 88z"/>
<path style="fill:#a8cc54; stroke:none;" d="M206 88L206 92L207 92L206 88M215 88L216 89L215 88M75 89L76 90L75 89M77 89L78 90L77 89z"/>
<path style="fill:#5cae4a; stroke:none;" d="M105 89L105 90L110 90L105 89M145 89L146 90L145 89M149 89L149 90L154 90L149 89M164 89L165 90L164 89M166.667 89.3333L167.333 89.6667L166.667 89.3333M178 89L179 90L178 89M196.333 89.6667L196.667 90.3333L196.333 89.6667M104 90L104 93L105 93L104 90M147.667 90.3333L148.333 90.6667L147.667 90.3333M154 90L155 91L154 90M163 90L164 91L163 90M168 90L168 91L171 91L168 90M179.667 90.3333L180.333 90.6667L179.667 90.3333M249 90L250 91L249 90M156 91L156 92L160 92L156 91M162 91L163 92L162 91M171 91L172 92L171 91M182.667 91.3333L183.333 91.6667L182.667 91.3333M185 91L185 92L189 92L185 91M197 91L198 92L197 91z"/>
<path style="fill:#a8cc54; stroke:none;" d="M221 91L222 92L221 91z"/>
<path style="fill:#5cae4a; stroke:none;" d="M118 92L118 93L123 94L118 92M126 92L127 93L126 92M172 92L173 93L172 92M189 92L190 93L189 92M198 92L198 93L201 93L198 92z"/>
<path style="fill:#f7fbf1; stroke:none;" d="M220 92L220 100C225.156 98.3281 225.213 93.5971 220 92z"/>
<path style="fill:#a8cc54; stroke:none;" d="M223 92L224 93L223 92z"/>
<path style="fill:#f7fbf1; stroke:none;" d="M245 92L246 98L248 98C248.784 94.57 248.422 93.1357 245 92z"/>
<path style="fill:#5cae4a; stroke:none;" d="M249 92L250 93L249 92M100 93L100 94L104 94L100 93M116.667 93.3333L117.333 93.6667L116.667 93.3333M125 93L126 94L125 93M173 93L174 94L173 93M190 93L191 94L190 93M201 93L203 95L203 93L201 93z"/>
<path style="fill:#a8cc54; stroke:none;" d="M207 93L208 94L207 93M224 93L225 94L224 93z"/>
<path style="fill:#5cae4a; stroke:none;" d="M97 94L97 95L100 95L97 94M115 94L116 95L115 94M174 94L175 95L174 94M180 94C182.461 97.5526 188.749 103.243 184 107L187 116L191 115L193 124C203.853 113.668 192.012 96.3905 180 94M192 94L192 95L195 95L192 94z"/>
<path style="fill:#a8cc54; stroke:none;" d="M208 94L209 95L208 94M215 94L216 95L215 94z"/>
<path style="fill:#208e45; stroke:none;" d="M216.333 94.6667L216.667 95.3333L216.333 94.6667z"/>
<path style="fill:#a8cc54; stroke:none;" d="M219 94L219 99L220 99L219 94z"/>
<path style="fill:#5cae4a; stroke:none;" d="M62 95C59.6427 105.473 67.268 104.718 66 96L62 95z"/>
<path style="fill:#a8cc54; stroke:none;" d="M65 95L66 96L65 95z"/>
<path style="fill:#5cae4a; stroke:none;" d="M95.6667 95.3333L96.3333 95.6667L95.6667 95.3333M114 95L115 96L114 95M175 95L176 96L175 95M195 95L196 96L195 95z"/>
<path style="fill:#a8cc54; stroke:none;" d="M209 95L210 96L209 95M66 96L67 97L66 96z"/>
<path style="fill:#5cae4a; stroke:none;" d="M94 96L94 100L95 100L94 96M112.667 96.3333L113.333 96.6667L112.667 96.3333M132 96L132 97L136 97L132 96M176 96L177 97L176 96M196 96L197 97L196 96M203 96L203 99L204 99L203 96z"/>
<path style="fill:#a8cc54; stroke:none;" d="M211 96L211 97L214 97L211 96M224 96L225 97L224 96z"/>
<path style="fill:#5cae4a; stroke:none;" d="M111 97L112 98L111 97M130.667 97.3333L131.333 97.6667L130.667 97.3333M136 97L137 98L136 97M177 97L178 98L177 97M197.667 97.3333L198.333 97.6667L197.667 97.3333M110 98L111 99L110 98M129 98L130 99L129 98M178 98L179 99L178 98M199.333 98.6667L199.667 99.3333L199.333 98.6667M109 99L110 100L109 99M128 99L129 100L128 99M172 99L172 100L175 100L172 99M179.333 99.6667L179.667 100.333L179.333 99.6667M204 99L205 100L204 99M41 100L42 101L41 100M93 100L94 101L93 100M108.333 100.667L108.667 101.333L108.333 100.667M123.667 100.333L124.333 100.667L123.667 100.333M126.667 100.333L127.333 100.667L126.667 100.333M136 100L137 101L136 100M176 100L177 101L176 100M200.333 100.667L200.667 101.333L200.333 100.667M205 100L206 101L205 100z"/>
<path style="fill:#a8cc54; stroke:none;" d="M221 100L222 101L221 100M237 100L236 107L237 107L239 101L237 100z"/>
<path style="fill:#f7fbf1; stroke:none;" d="M246 117C245.823 113.968 245.765 111.035 245.865 108.001C245.982 104.429 242.381 96.4107 238.029 101.746C234.072 106.597 241.611 115.646 246 117z"/>
<path style="fill:#a8cc54; stroke:none;" d="M243 100L244 101L243 100z"/>
<path style="fill:#f7fbf1; stroke:none;" d="M255 100C244.277 101.752 256.454 114.183 255 100z"/>
<path style="fill:#5cae4a; stroke:none;" d="M42 101L41 105L42 105L42 101M49 109L47 108C45.8536 112.435 46.8065 117.577 51 120L51 131C57.2725 126.587 56.6306 108.213 57 101L49 109M91.6667 101.333L92.3333 101.667L91.6667 101.333M113 101L114 102L113 101M115 101L115 105L116 105L115 101M122 101L123 102L122 101M172 101L173 102L172 101M177 101L178 102L177 101M206 101L207 102L206 101M88 102L88 103L91 103L88 102M107 102L108 103L107 102M112.333 102.667L112.667 103.333L112.333 102.667M121.333 102.667L121.667 103.333L121.333 102.667M135 102L136 103L135 102M173.333 102.667L173.667 103.333L173.333 102.667M178.667 102.333L179.333 102.667L178.667 102.333M207 102L208 103L207 102M53 188L54 188L54 175L55 175L59.0702 196.981L65.5664 207.019L65.7631 219L72 234L78 236L74 226C78.4137 228.415 79.6886 232.397 83.2122 235.701C90.8135 242.83 100.935 249.122 111 252L111 253L105 253C108.655 259.425 133.67 273.738 138 263L136 255C127.58 257.151 116.99 251.542 114 243C128.256 248.142 137.327 248.569 151 241L145 255L183 251L173 255L175 258L176 258L180 255C179.834 258.655 178.567 259.315 175 259L170 264L170 265L189 262C191.02 257.788 193.311 255.958 198 257L203 253L203 252L188 252C194.131 240.493 209.753 247.314 213 231C204.176 233 198.488 244.205 188.834 241.596C181.754 239.684 184.492 232.676 177 231C172.15 236.565 157.137 236.498 152 231L151 231L153 235L136 238L136 243L133 246C127.745 244.044 125.956 242.255 124 237C117.636 238.849 115.516 236.757 110 234C110.069 229.877 107.711 229.808 104 230L104 229L107 229L107 228L100 227C97.9341 222.586 95.1036 219.279 90 220C91.9252 217.141 93.0431 215.254 90 213C90.3047 231.679 72.31 202.837 90 212L72.9691 181L74 156C67.8906 161.238 66.8404 169.55 65 177L64 177L60.6435 161.961L66 135C72.8595 135.511 76.4053 130.198 78 124L68 125L68 126L72 125L72 129L66 130C68.8049 122.119 76.7475 114.945 75 106L88 104C78.9939 100.327 74.1495 107.759 67.8711 112.081C55.1197 120.86 53.0993 140.204 51.3773 155C49.8631 168.011 45.9292 175.441 53 188M106 103L105 105L107 105L106 103M133.667 103.333L134.333 103.667L133.667 103.333M146 103L146 104L150 104L146 103M165 103L166 104L165 103M201.333 103.667L201.667 104.333L201.333 103.667M208 103L208 114L209 114L208 103M110 104L111 105L110 104M119.667 104.333L120.333 104.667L119.667 104.333M132.333 104.667L132.667 105.333L132.333 104.667M139 104L139 105L145 105L139 104M150.667 104.333L151.333 104.667L150.667 104.333M164.333 104.667L164.667 105.333L164.333 104.667M166.667 104.333L167.333 104.667L166.667 104.333M174 104L174 108L175 108L174 104M104.333 105.667L104.667 106.333L104.333 105.667M109 105L108 107L110 107L109 105M117.667 105.333L118.333 105.667L117.667 105.333M138 105L139 106L138 105M152 105L153 106L152 105M168 105L169 106L168 105M202 105L203 106L202 105z"/>
<path style="fill:#a8cc54; stroke:none;" d="M249.333 105.667L249.667 106.333L249.333 105.667M56 106L57 107L56 106z"/>
<path style="fill:#f7fbf1; stroke:none;" d="M56 114C60.134 112.66 60.6037 110.082 60 106C55.954 107.343 56.0466 110.065 56 114z"/>
<path style="fill:#5cae4a; stroke:none;" d="M98 108L101 107L98 108M137 106L138 107L137 106M159 106L160 107L159 106M162.667 106.333L163.333 106.667L162.667 106.333M169 106L170 107L169 106M203 106L203 107L206 107L203 106z"/>
<path style="fill:#a8cc54; stroke:none;" d="M77 152L78 152L87.3426 128L101 107C80.909 113.361 78.5906 133.758 77 152z"/>
<path style="fill:#5cae4a; stroke:none;" d="M103 107L104 108L103 107M107 107L106 109L108 109L107 107M132 107L133 108L132 107M134.667 107.333L135.333 107.667L134.667 107.333M151 107L152 108L151 107M158 107L159 108L158 107M171 107L172 108L171 107z"/>
<path style="fill:#a8cc54; stroke:none;" d="M250 107L251 108L250 107z"/>
<path style="fill:#5cae4a; stroke:none;" d="M96 108L97 109L96 108M100 108L101 109L100 108M102.333 108.667L102.667 109.333L102.333 108.667M147 108L148 109L147 108M149.667 108.333L150.333 108.667L149.667 108.333M157 108L158 109L157 108M206.333 108.667L206.667 109.333L206.333 108.667z"/>
<path style="fill:#a8cc54; stroke:none;" d="M237 108L238 109L237 108M251 108L252 109L251 108M253.667 108.333L254.333 108.667L253.667 108.333z"/>
<path style="fill:#5cae4a; stroke:none;" d="M95 109L96 110L95 109M105 109L106 110L105 109M144.667 109.333L145.333 109.667L144.667 109.333z"/>
<path style="fill:#a8cc54; stroke:none;" d="M238 109L239 110L238 109z"/>
<path style="fill:#f7fbf1; stroke:none;" d="M45 119C48.7261 106.252 35.7175 113.881 45 119z"/>
<path style="fill:#5cae4a; stroke:none;" d="M93 110L94 111L93 110M99 110L100 111L99 110M101.333 110.667L101.667 111.333L101.333 110.667M104 110L105 111L104 110M143 110L144 111L143 110z"/>
<path style="fill:#a8cc54; stroke:none;" d="M239 110L239 113L240 113L239 110M245 110L246 111L245 110M249 110L250 111L249 110z"/>
<path style="fill:#5cae4a; stroke:none;" d="M91 111L92 112L91 111M98 111L99 112L98 111M103.333 111.667L103.667 112.333L103.333 111.667M142 111L143 112L142 111M157.333 111.667L157.667 112.333L157.333 111.667M162.667 111.333L163.333 111.667L162.667 111.333M205 111L205 114L206 114L205 111z"/>
<path style="fill:#f7fbf1; stroke:none;" d="M248 111L249 118L251 118C251.979 114.326 251.798 112.26 248 111z"/>
<path style="fill:#5cae4a; stroke:none;" d="M97 112L98 113L97 112M100 112L102 116L100 112M141 112L142 113L141 112M161 112L162 113L161 112M164 112L165 113L164 112M170 112L170 113L174 113L170 112z"/>
<path style="fill:#a8cc54; stroke:none;" d="M245 112L246 113L245 112M247 112L248 113L247 112M255 112L255 115L256 115L255 112z"/>
<path style="fill:#5cae4a; stroke:none;" d="M90.3333 113.667L90.6667 114.333L90.3333 113.667M96 113L97 114L96 113M102.333 113.667L102.667 114.333L102.333 113.667M140 113L141 114L140 113M159 113L160 114L159 113M165 113L166 114L165 113M168 113L169 114L168 113M174 113L175 114L174 113z"/>
<path style="fill:#a8cc54; stroke:none;" d="M240 113L241 114L240 113M246 113L246 117L247 117L246 113M252 113L252 117L253 117L252 113z"/>
<path style="fill:#5cae4a; stroke:none;" d="M166.667 114.333L167.333 114.667L166.667 114.333M209 114L208 124C210.789 121.563 210.361 117.244 209 114M37 115L38 116L37 115M39 115L38 119L39 119L39 115M89 115L90 116L89 115M94 115L95 116L94 115M139 115L140 116L139 115M176 115L177 116L176 115M201 115L199 157L195 154C193.257 167.704 185.677 176.694 173 182L173 183C183.715 181.186 189.899 176.756 198 170C196.702 186.294 183.146 189.844 171 197L171 198C183.973 194.346 197.359 190.126 204.976 178.687C209.239 172.284 204.066 167.82 203.638 161.961C203.28 157.052 206.269 151.92 206.61 147C207.013 141.164 203.681 135.67 202.762 130C201.93 124.876 203.31 119.816 201 115M206.333 115.667L206.667 116.333L206.333 115.667M88 116L89 117L88 116M153 116L153 117L156 119C156.951 116.493 155.348 116.294 153 116M177 116L178 117L177 116z"/>
<path style="fill:#a8cc54; stroke:none;" d="M242 116L243 117L242 116M254 116L254 117L257 118L254 116z"/>
<path style="fill:#5cae4a; stroke:none;" d="M84 117L85 118L84 117M93 117L94 118L93 117M144 117L145 118L144 117M147 117L148 118L147 117M151.667 117.333L152.333 117.667L151.667 117.333M178.333 117.667L178.667 118.333L178.333 117.667M207 117L207 122L208 122L207 117z"/>
<path style="fill:#a8cc54; stroke:none;" d="M243 117L243 118L246 118L243 117M248 117L249 118L248 117M251 117L252 118L251 117z"/>
<path style="fill:#f7fbf1; stroke:none;" d="M253 117C252.863 120.56 253.573 121.911 257 123C256.737 119.59 256.321 118.099 253 117z"/>
<path style="fill:#5cae4a; stroke:none;" d="M83 118L84 119L83 118M138 118L139 119L138 118M142 118L143 119L142 118M148 118L148 119L151 119L148 118z"/>
<path style="fill:#a8cc54; stroke:none;" d="M252 118L253 119L252 118z"/>
<path style="fill:#5cae4a; stroke:none;" d="M42 119C40.9451 121.131 40.2475 122.596 39 120L38 120L38 131L39 131L40 129L37 176L38 176L38 172L39 172L40 182C43.3898 183.722 44.3261 185.193 44 189L49 188C45.7893 180.979 41.6377 177.261 43 169C38.086 164.244 41.8328 156.287 43 150L44 150L48 155C47.9758 148.161 42.9097 146.689 42.1636 140.981C41.0594 132.533 52.3424 125.552 42 119M82 119L83 120L82 119M92 119L93 120L92 119M139.667 119.333L140.333 119.667L139.667 119.333M92 154C91.4737 159.844 87.4811 163.869 85.5841 169.17C83.1312 176.024 88.8098 189.835 95 193L96 188C101.546 191.058 99.952 198.814 103.884 203.721C107.592 208.348 126.409 212.096 132 211L104.277 182.323L95 174C96.6033 169.578 103.646 149.846 95 150C97.679 146.227 103.22 142.68 100 138L100 137L110 130L111 137C120.894 131.242 128.288 127.242 140 127C134.059 117.801 120.239 126.013 113 128L114 120C99.6193 123.298 98.0156 132.15 90.1813 142C87.7472 145.06 82.0399 151.295 83.7083 155.663C85.1381 159.405 90.2571 155.191 92 154M156.667 120.333L157.333 120.667L156.667 120.333z"/>
<path style="fill:#a8cc54; stroke:none;" d="M252.333 120.667L252.667 121.333L252.333 120.667M257.333 120.667L257.667 121.333L257.333 120.667z"/>
<path style="fill:#5cae4a; stroke:none;" d="M81 121L81 124L82 124L81 121M91 121L92 122L91 121M158 121L159 122L158 121M90 122L91 123L90 122z"/>
<path style="fill:#a8cc54; stroke:none;" d="M253 122L254 123L253 122M260 122C253.992 129.575 262.584 144.788 263.126 154C263.563 161.439 258.108 162.063 255.269 167.299C251.376 174.476 255.35 182.304 248 189L250 176L228 202L230 209L233 212L234 212L232 209L232 208L245 204L244 216L243 216L243 213L242 213L243 218L240 218L240 219L242 218L242 219C236.121 226.077 233.121 230.728 224 233L224 234L228 233L225 239L224 235L223 235L218 241L226 226L219 228L221 221L218 222L222 216L221 220L227 217L223 206L222 206C219.977 217.417 206.077 218.638 197.028 221.083C194.406 221.792 192.842 224.62 190 224.417C185.878 224.122 179.117 221.099 175.111 222.528C171.691 223.748 174.365 225.927 176 227L152 231C155.882 236.994 173.427 237.316 177 231L183.792 239.451L196 242L196 241L193 240L194 232L202 238L213 231C210.751 237.781 205.515 243.151 199 246L200 251C195.574 252.284 193.335 251.559 192 247L191 247L188 252L203 252L203 253L198 257L194 255L194 256L198 258L190 263L193 256L189 262C183.118 261.127 177.794 265.11 171.915 264.42C169.422 264.127 165.841 262.284 167.748 259.295C170.745 254.594 179.133 255.185 183 251L168.95 253.326L145 255C143.82 258.82 140.652 258.891 137 259C138.007 252.838 141.601 255.251 145.61 252.311C148.937 249.871 150.495 244.865 151 241C138.963 245.715 130.513 249.664 118 244L120 248L115 247L115 248C122.592 252.218 126.931 258.279 136 255C135.441 258.446 135 260.855 138 263L135 268C135.903 271.243 135.207 272.012 132 273L132 274L148 277L147 274L170 274L170 273L165 272L165 271C177.626 267.838 190.195 273.019 202.17 267.036C206.784 264.731 211.556 265.481 211 259C215.716 257.278 220.604 256.661 223.836 252.405C228.209 246.647 224.761 243.358 233 240L230 235L238 236L239 236C243.493 230.78 249.444 227.386 250 220C243.102 219.211 249.681 212.17 250 219C254.096 215.987 257.939 208.03 251 206C252.219 199.658 256.355 198.404 258.598 192.956C268.686 168.456 273.685 146.355 260 122z"/>
<path style="fill:#5cae4a; stroke:none;" d="M159 123L160 124L159 123M179 123L180 124L179 123z"/>
<path style="fill:#a8cc54; stroke:none;" d="M255 123L256 124L255 123z"/>
<path style="fill:#5cae4a; stroke:none;" d="M161 124L163 126L163 124L161 124M180 124L181 125L180 124M36 125L37 133L38 133L36 125z"/>
<path style="fill:#f7fbf1; stroke:none;" d="M69 125L69 129L72 125L69 125z"/>
<path style="fill:#5cae4a; stroke:none;" d="M181 125L182 126L181 125z"/>
<path style="fill:#a8cc54; stroke:none;" d="M213 125L219 147L220 147C218.159 139.653 219.25 130.202 213 125z"/>
<path style="fill:#5cae4a; stroke:none;" d="M214 125L215 126L214 125z"/>
<path style="fill:#a8cc54; stroke:none;" d="M68.3333 126.667L68.6667 127.333L68.3333 126.667z"/>
<path style="fill:#5cae4a; stroke:none;" d="M88 126L89 127L88 126M163 126L164 127L163 126M182.333 126.667L182.667 127.333L182.333 126.667M194 126L196 134L197 134L194 126M215 126L216 127L215 126M80 127L80 132L81 132L80 127M87 127L88 128L87 127M166 127L167 128L166 127z"/>
<path style="fill:#a8cc54; stroke:none;" d="M194 127L195 144L196 144L194 127M71 128L72 129L71 128z"/>
<path style="fill:#5cae4a; stroke:none;" d="M183.333 128.667L183.667 129.333L183.333 128.667M193 129L193 134L194 134L193 129M213.333 129.667L213.667 130.333L213.333 129.667M217.333 129.667L217.667 130.333L217.333 129.667M146 130L146 131L152 131L146 130M153 130L154 131L153 130z"/>
<path style="fill:#208e45; stroke:none;" d="M65 131L66 132L65 131z"/>
<path style="fill:#5cae4a; stroke:none;" d="M135.667 131.333L136.333 131.667L135.667 131.333M139 131L140 132L139 131M145 131L146 132L145 131M134 132L135 133L134 132M140 132L140 134L142 134L140 132M156 132L156 133L159 133L156 132M167.667 132.333L168.333 132.667L167.667 132.333M214 132L215 133L214 132M217.333 132.667L217.667 133.333L217.333 132.667M36 133L37 134L36 133M79.3333 133.667L79.6667 134.333L79.3333 133.667M133 133L134 134L133 133M144 133L145 134L144 133M170 133L171 134L170 133M143 134L144 135L143 134M152 134L153 135L152 134M159.333 134.667L159.667 135.333L159.333 134.667M184.333 134.667L184.667 135.333L184.333 134.667M194 134L194 139L195 139L194 134z"/>
<path style="fill:#a8cc54; stroke:none;" d="M66 135L67 136L66 135z"/>
<path style="fill:#f7fbf1; stroke:none;" d="M67 135L66 139L69 135L67 135z"/>
<path style="fill:#5cae4a; stroke:none;" d="M85 135L86 136L85 135M128.667 135.333L129.333 135.667L128.667 135.333M132 135L133 136L132 135M151 135L152 136L151 135M153 135L154 136L153 135M171 135L172 136L171 135M196 135L196 139L197 139L196 135M218.333 135.667L218.667 136.333L218.333 135.667z"/>
<path style="fill:#a8cc54; stroke:none;" d="M69.3333 136.667L69.6667 137.333L69.3333 136.667z"/>
<path style="fill:#5cae4a; stroke:none;" d="M121 136L122 137L121 136M127.333 136.667L127.667 137.333L127.333 136.667M146 136L146 137L150 137L146 136M155 136L155 137L159 137L155 136M161 136L162 137L161 136M215.333 136.667L215.667 137.333L215.333 136.667M119 137L120 138L119 137M123.333 137.667L123.667 138.333L123.333 137.667M145 137L146 138L145 137M159 137L160 138L159 137M162 137L163 138L162 137M172.333 137.667L172.667 138.333L172.333 137.667M185 137L186 138L185 137z"/>
<path style="fill:#a8cc54; stroke:none;" d="M255 137L257 139L255 137z"/>
<path style="fill:#5cae4a; stroke:none;" d="M69.3333 138.667L69.6667 139.333L69.3333 138.667M78 138L79 139L78 138M118 138L119 139L118 138M126 138L127 139L126 138M144 138L145 139L144 138M160 138L161 139L160 138M186 138L187 139L186 138z"/>
<path style="fill:#f7fbf1; stroke:none;" d="M254 138L257 144L256 138L254 138z"/>
<path style="fill:#a8cc54; stroke:none;" d="M67.6667 139.333L68.3333 139.667L67.6667 139.333z"/>
<path style="fill:#5cae4a; stroke:none;" d="M84 139L85 140L84 139M117 139L118 140L117 139M124.667 139.333L125.333 139.667L124.667 139.333M143.333 139.667L143.667 140.333L143.333 139.667M149 139L149 140L152 140L149 139M162 139L163 140L162 139M210 139L209 168C217.961 163.222 215.027 146.056 210 139M218.333 139.667L218.667 140.333L218.333 139.667M78 140L79 141L78 140M83 140L84 141L83 140M116 140L117 141L116 140M147 140L148 141L147 140M154.667 140.333L155.333 140.667L154.667 140.333M216 140L217 141L216 140z"/>
<path style="fill:#a8cc54; stroke:none;" d="M257 140L257 143L258 143L257 140z"/>
<path style="fill:#5cae4a; stroke:none;" d="M82 141L82 145L83 145L82 141M114 141L115 142L114 141M144 141L144 142L147 142L144 141M156 141L156 144L157 144L156 141M173 141L174 142L173 141z"/>
<path style="fill:#a8cc54; stroke:none;" d="M249 143L252 142L249 143M254.333 141.667L254.667 142.333L254.333 141.667z"/>
<path style="fill:#5cae4a; stroke:none;" d="M113 142L114 143L113 142M189 142L190 143L189 142M194 142L196 147L194 142z"/>
<path style="fill:#f7fbf1; stroke:none;" d="M250 151L254 151L253 142C248.439 143.515 249.246 146.864 250 151z"/>
<path style="fill:#5cae4a; stroke:none;" d="M78.3333 143.667L78.6667 144.333L78.3333 143.667M175 143L176 144L175 143M217.333 143.667L217.667 144.333L217.333 143.667M219 143L219 146L220 146L219 143z"/>
<path style="fill:#a8cc54; stroke:none;" d="M253 143L254 144L253 143z"/>
<path style="fill:#5cae4a; stroke:none;" d="M155 144L156 145L155 144M190.333 144.667L190.667 145.333L190.333 144.667z"/>
<path style="fill:#a8cc54; stroke:none;" d="M256 144L257 145L256 144z"/>
<path style="fill:#5cae4a; stroke:none;" d="M145 145L146 146L145 145M148 145L149 146L148 145M176 145L177 146L176 145z"/>
<path style="fill:#a8cc54; stroke:none;" d="M254 145L254 150L255 150L254 145z"/>
<path style="fill:#5cae4a; stroke:none;" d="M77.3333 146.667L77.6667 147.333L77.3333 146.667M81 146L82 147L81 146M112 146L113 147L112 146M141 146L141 147L144 147L141 146M149 146L150 147L149 146M154 146L155 147L154 146M218 146L219 147L218 146M110 147L111 148L110 147M150 147L151 148L150 147M175 147L176 148L175 147M187 147L188 148L187 147M191 147L190 151L191 147M219 147L220 148L219 147M140.333 148.667L140.667 149.333L140.333 148.667M155.667 148.333L156.333 148.667L155.667 148.333M186 148L187 149L186 148z"/>
<path style="fill:#a8cc54; stroke:none;" d="M249.333 148.667L249.667 149.333L249.333 148.667z"/>
<path style="fill:#5cae4a; stroke:none;" d="M76 149L78 153L76 149M79 149L80 150L79 149M110 149L111 150L110 149M158 149L159 150L158 149M174 149L175 150L174 149M189 149L190 150L189 149M218 152L219 152C219.653 150.04 220 149.446 220 152L221 152L220 149L218 152z"/>
<path style="fill:#a8cc54; stroke:none;" d="M43 150L42 156L43 156L43 150z"/>
<path style="fill:#5cae4a; stroke:none;" d="M111 150L111 153L112 153L111 150M126 150L127 151L126 150M128.667 150.333L129.333 150.667L128.667 150.333M141.333 150.667L141.667 151.333L141.333 150.667M148 150L149 151L148 150M159 150L160 151L159 150M169 150L169 151L174 151L169 150z"/>
<path style="fill:#a8cc54; stroke:none;" d="M219 150C220.289 158.766 224.72 170.155 222.106 178.999C220.42 184.706 215.227 187.323 211.531 191.452C202.12 201.965 190.799 205.064 178.174 210.549C170.017 214.093 164.188 218.597 155 221L155 222C161.822 221.859 171.432 221.999 177.83 219.479C182.079 217.806 184.84 213.672 189.09 212.028C202.019 207.025 211.954 203.231 221.061 191.871C224.724 187.302 223.992 181.45 227 177C224.741 167.619 225.498 157.843 219 150z"/>
<path style="fill:#5cae4a; stroke:none;" d="M78 151L79 152L78 151M125.333 151.667L125.667 152.333L125.333 151.667M131 151L132 152L131 151M147 151L148 152L147 151M160 151L161 152L160 151z"/>
<path style="fill:#a8cc54; stroke:none;" d="M251.667 151.333L252.333 151.667L251.667 151.333z"/>
<path style="fill:#5cae4a; stroke:none;" d="M133 152L134 153L133 152M142 152L143 153L142 152M186.333 152.667L186.667 153.333L186.333 152.667M134 153L135 154L134 153M144 153L145 154L144 153M147 153L148 154L147 153M169 153L170 154L169 153M219.333 153.667L219.667 154.333L219.333 153.667M221 153L222 154L221 153z"/>
<path style="fill:#f7fbf1; stroke:none;" d="M47 164L46 154C40.9735 156.8 42.4125 161.53 47 164z"/>
<path style="fill:#5cae4a; stroke:none;" d="M113 154L114 155L113 154M125 154L126 155L125 154M145 154L145 157L146 157L145 154M148 154L149 155L148 154M159 154L160 155L159 154M187 154L188 155L187 154M115.667 155.333L116.333 155.667L115.667 155.333M134 155L135 156L134 155M150 155L151 156L150 155M158 155L159 156L158 155M222 155L223 156L222 155M117 156L118 157L117 156M123.333 156.667L123.667 157.333L123.333 156.667M152 156L152 157L155 157L152 156M157 156L158 157L157 156M171 156L172 157L171 156M188 156L189 157L188 156M220.333 156.667L220.667 157.333L220.333 156.667M118 157L119 158L118 157M133.333 157.667L133.667 158.333L133.333 157.667M144 157L144 161L145 161L144 157M223 157L224 158L223 157M119 158L120 159L119 158M124 158L125 159L124 158M187 158L188 159L187 158M125 159L126 160L125 159M156 159L156 160L159 160L156 159M171 159L172 160L171 159M186.333 159.667L186.667 160.333L186.333 159.667M224.333 159.667L224.667 160.333L224.333 159.667M118 160L118 163L119 163L118 160M126.333 160.667L126.667 161.333L126.333 160.667M132 160L133 161L132 160M148 160L149 161L148 160M150 160L151 161L150 160M159 160L160 161L159 160M170 160L171 161L170 160M220 160L221 161L220 160M131.333 161.667L131.667 162.333L131.333 161.667M145 161L146 162L145 161M147 161L148 162L147 161M154 161L155 162L154 161M167 161L167 162L170 162L167 161z"/>
<path style="fill:#f7fbf1; stroke:none;" d="M40 162L41 168L42 168L40 162z"/>
<path style="fill:#5cae4a; stroke:none;" d="M151 162L151 163L154 163L151 162M160.333 162.667L160.667 163.333L160.333 162.667M166 162L167 163L166 162M221.333 162.667L221.667 163.333L221.333 162.667M115 163C115.238 174.537 120.027 195.834 134 196C134.933 201.584 144.803 202.801 150 202.606C156.711 202.355 159.72 197.359 165.015 194.16C172.943 189.369 183.914 189.801 189 181L163 190.455L147.004 195.142L136.961 189.302L127.495 185.602L115 163M119 163L120 164L119 163M126 163L127 164L126 163M132 163L133 164L132 163M165 163L166 164L165 163M186.333 163.667L186.667 164.333L186.333 163.667M32 164L33 165L32 164M45.6667 164.333L46.3333 164.667L45.6667 164.333M120 164L121 165L120 164M133 164L134 165L133 164M162 164L163 165L162 164M122 165L123 166L122 165M129 165L130 166L129 165M135 165L135 166L138 166L135 165M227 166L227 167L231 167L227 166M123 166L124 167L123 166M130.667 166.333L131.333 166.667L130.667 166.333M169.667 166.333L170.333 166.667L169.667 166.333M185 166L186 167L185 166z"/>
<path style="fill:#f7fbf1; stroke:none;" d="M228 166L231 170L230 166L228 166z"/>
<path style="fill:#a8cc54; stroke:none;" d="M40 167L41 168L40 167z"/>
<path style="fill:#5cae4a; stroke:none;" d="M125 167L125 168L129 168L125 167M133.333 167.667L133.667 168.333L133.333 167.667M139 167L140 168L139 167M167 167L168 168L167 167M184 167L185 168L184 167M225.333 167.667L225.667 168.333L225.333 167.667z"/>
<path style="fill:#a8cc54; stroke:none;" d="M227 167L227 170L228 170L227 167z"/>
<path style="fill:#5cae4a; stroke:none;" d="M130.667 168.333L131.333 168.667L130.667 168.333M166 168L167 169L166 168M170 168L171 169L170 168M182 168L183 169L182 168M221 168L221 173L222 173L221 168M231.333 168.667L231.667 169.333L231.333 168.667M264 168L264 172L265 172L264 168M140 169L141 170L140 169M163 169L163 170L166 170L163 169M169 169L170 170L169 169M180 169L181 170L180 169M32.3333 170.667L32.6667 171.333L32.3333 170.667z"/>
<path style="fill:#a8cc54; stroke:none;" d="M126 170C128.89 175.933 131.429 180.894 138 183L126 170z"/>
<path style="fill:#5cae4a; stroke:none;" d="M127 170L128 171L127 170M162 170L163 171L162 170M168.333 170.667L168.667 171.333L168.333 170.667M179 170L180 171L179 170z"/>
<path style="fill:#a8cc54; stroke:none;" d="M228.667 170.333L229.333 170.667L228.667 170.333z"/>
<path style="fill:#5cae4a; stroke:none;" d="M230 170L231 171L230 170M126 171L127 172L126 171M128 171L129 172L128 171M140 171L141 172L140 171M161 171L162 172L161 171M178 171L179 172L178 171M226.333 171.667L226.667 172.333L226.333 171.667M167 172L168 173L167 172M177 172L178 173L177 172M127 173L128 174L127 173M130 173L131 174L130 173M140 173L141 174L140 173M157 173L157 174L160 174L157 173M166 173L167 174L166 173M174.667 173.333L175.333 173.667L174.667 173.333M217 173L215 177L216 177L216 175L217 175L215 182L216 182L217 173M128 174L129 175L128 174M131 174L132 175L131 174M156 174L157 175L156 174M165 174L166 175L165 174M173 174L174 175L173 174M222.333 174.667L222.667 175.333L222.333 174.667z"/>
<path style="fill:#a8cc54; stroke:none;" d="M54 175C54 183.524 53.2359 191.712 60 198L54 175z"/>
<path style="fill:#5cae4a; stroke:none;" d="M129 175L130 176L129 175M155 175L156 176L155 175M163 175L164 176L163 175M171 175L172 176L171 175z"/>
<path style="fill:#a8cc54; stroke:none;" d="M216 175C212.853 182.506 207.767 186.718 201 191L201 192C207.608 189.728 218.972 183.591 216 175z"/>
<path style="fill:#5cae4a; stroke:none;" d="M226 175L227 176L226 175M36.3333 176.667L36.6667 177.333L36.3333 176.667M132 176L133 177L132 176M140 176L141 177L140 176M154 176L155 177L154 176M162 176L163 177L162 176M169 176L170 177L169 176M227.667 176.333L228.333 176.667L227.667 176.333M133 177L134 178L133 177M141 177L142 178L141 177M147 177L148 178L147 177M150 177L151 178L150 177M153 177L154 178L153 177M161 177L162 178L161 177M166 177L167 178L166 177M222.333 177.667L222.667 178.333L222.333 177.667z"/>
<path style="fill:#f7fbf1; stroke:none;" d="M225 177L225 181L228 177L225 177z"/>
<path style="fill:#a8cc54; stroke:none;" d="M228 177L228 180L229 180L228 177z"/>
<path style="fill:#5cae4a; stroke:none;" d="M135 178L136 179L135 178M146 178L147 179L146 178M159.667 178.333L160.333 178.667L159.667 178.333M164 178L165 179L164 178M214 178L215 179L214 178M130 179L131 180L130 179M158 179L159 180L158 179M163 179L164 180L163 179M261 179L262 180L261 179M132 180L133 181L132 180M136 180L137 181L136 180M156 180L157 181L156 180M160 180L161 181L160 180M213 180L214 181L213 180z"/>
<path style="fill:#a8cc54; stroke:none;" d="M227 180L228 181L227 180z"/>
<path style="fill:#5cae4a; stroke:none;" d="M262 180L263 181L262 180M133 181L134 182L133 181M137 181L138 182L137 181M155 181L156 182L155 181M159 181L160 182L159 181M212.333 181.667L212.667 182.333L212.333 181.667M221 181L222 182L221 181M226 181L225 184L226 184L226 181z"/>
<path style="fill:#208e45; stroke:none;" d="M227 181C220.658 193.412 212.159 202.175 200 209L200 210L221 199L229 181L227 181z"/>
<path style="fill:#5cae4a; stroke:none;" d="M135 182L136 183L135 182M138 182L139 183L138 182M156.667 182.333L157.333 182.667L156.667 182.333M220 182L221 183L220 182M261 182L262 183L261 182z"/>
<path style="fill:#f7fbf1; stroke:none;" d="M40 183L41 189L43 189C43.7837 185.57 43.4222 184.136 40 183z"/>
<path style="fill:#5cae4a; stroke:none;" d="M211 183L212 184L211 183M214.333 183.667L214.667 184.333L214.333 183.667M142 184L143 185L142 184z"/>
<path style="fill:#a8cc54; stroke:none;" d="M143 184L142 185L150 187L150 186L143 184z"/>
<path style="fill:#5cae4a; stroke:none;" d="M144 184L145 185L144 184M209.667 184.333L210.333 184.667L209.667 184.333M219 184L220 185L219 184M145 185L145 186L149 186L145 185M208 185L209 186L208 185M213 185L214 186L213 185M218 185L219 186L218 185M224 185L224 188L225 188L224 185M142 186L143 187L142 186M148 187L148 188L153 189L153 188L151 188L151 187L157 187L148 187M207 186L208 187L207 186M211.667 186.333L212.333 186.667L211.667 186.333M216 186L217 187L216 186z"/>
<path style="fill:#f7fbf1; stroke:none;" d="M252 186C248.533 197.259 259.181 196.056 254 186L252 186z"/>
<path style="fill:#5cae4a; stroke:none;" d="M144.667 187.333L145.333 187.667L144.667 187.333z"/>
<path style="fill:#a8cc54; stroke:none;" d="M151 187L151 188L154 188L151 187z"/>
<path style="fill:#5cae4a; stroke:none;" d="M206 187L207 188L206 187M209.667 187.333L210.333 187.667L209.667 187.333z"/>
<path style="fill:#f7fbf1; stroke:none;" d="M45 188L47 195C50.0193 191.816 49.1115 189.303 45 188z"/>
<path style="fill:#5cae4a; stroke:none;" d="M49 188L50 189L49 188z"/>
<path style="fill:#f7fbf1; stroke:none;" d="M51 188C51.2685 195.746 48.9749 206.69 60 205L54 188L51 188z"/>
<path style="fill:#5cae4a; stroke:none;" d="M146 188L147 189L146 188M204.667 188.333L205.333 188.667L204.667 188.333M208 188L209 189L208 188M215 188L216 189L215 188M223 188L224 189L223 188M43 189L44 190L43 189M203 189L204 190L203 189M207 189L208 190L207 189M213.667 189.333L214.333 189.667L213.667 189.333M201 190L202 191L201 190M204 190L204 191L207 191L204 190M211 190L212 191L211 190M222 190L223 191L222 190M199 193L202 193L201 191L199 193M203 191L204 192L203 191M210 191L211 192L210 191M221 191L222 192L221 191z"/>
<path style="fill:#f7fbf1; stroke:none;" d="M239 191C231.416 201.587 246.173 198.911 239 191z"/>
<path style="fill:#5cae4a; stroke:none;" d="M220 192L221 193L220 192M50 193L47 195L49 201L50 201L50 193M209 193L210 194L209 193M219 194L220 195L219 194M209 195L210 196L209 195M216.667 195.333L217.333 195.667L216.667 195.333z"/>
<path style="fill:#a8cc54; stroke:none;" d="M225 195C217.154 205.165 202.852 210.966 191 215L191 216C201.459 214.592 209.872 211.103 217.804 204.15C220.639 201.664 225.087 198.981 225 195z"/>
<path style="fill:#5cae4a; stroke:none;" d="M208 196L209 197L208 196z"/>
<path style="fill:#f7fbf1; stroke:none;" d="M43.4182 198.176C40.5721 199.794 42.188 206.731 45.6096 204.824C48.6256 203.143 46.8573 196.221 43.4182 198.176z"/>
<path style="fill:#208e45; stroke:none;" d="M221 197L222 198L221 197z"/>
<path style="fill:#5cae4a; stroke:none;" d="M179.667 198.333L180.333 198.667L179.667 198.333z"/>
<path style="fill:#a8cc54; stroke:none;" d="M181 198L165 205C169.326 205.693 181.14 203.634 181 198z"/>
<path style="fill:#5cae4a; stroke:none;" d="M182.333 198.667L182.667 199.333L182.333 198.667M206 198L207 199L206 198M213 198L214 199L213 198M252 198L251 202L252 202L254 198L252 198M176 199L177 200L176 199M201 199L202 200L201 199M169 200L169 201L172 201L169 200M174 200L175 201L174 200M181 200L182 201L181 200M199 200L200 201L199 200M212 200L213 201L212 200z"/>
<path style="fill:#a8cc54; stroke:none;" d="M252 200L253 201L252 200z"/>
<path style="fill:#5cae4a; stroke:none;" d="M179 201L180 202L179 201M198 201L199 202L198 201M177 202L178 203L177 202M197 202L198 203L197 202M211 202L212 203L211 202M97 203L97 209L98 209L97 203z"/>
<path style="fill:#a8cc54; stroke:none;" d="M98 203C98 210.277 97.5015 219.403 101.985 225.698C103.826 228.283 107.362 228.899 109.53 231.227C111.756 233.617 112.82 236.829 116.094 238.089C122.044 240.378 128.028 236.643 134 240L135 240L145 234L131 233L130 233C127.156 229.52 119.534 222.526 116 228L98 203z"/>
<path style="fill:#5cae4a; stroke:none;" d="M174 203L175 204L174 203M196 203L197 204L196 203M210 203L211 204L210 203z"/>
<path style="fill:#a8cc54; stroke:none;" d="M225 203L226 204L225 203z"/>
<path style="fill:#f7fbf1; stroke:none;" d="M233 210L230 209C230.861 202.429 223.559 202 223.277 207.954C222.895 216.029 230.922 218.635 233 210z"/>
<path style="fill:#208e45; stroke:none;" d="M75 204L76 205L75 204z"/>
<path style="fill:#5cae4a; stroke:none;" d="M172 204L173 205L172 204M194 204L195 205L194 204M208 204L209 205L208 204M232 208L232 209L230 218C222.861 216.531 219.685 221.354 219 228L226 226L218 241C221.383 239.12 222.446 235.888 225.414 233.768C232.638 228.609 238.1 227.394 242 218C229.531 224.514 237.204 204.617 243 216L244 216L245 204L232 208z"/>
<path style="fill:#a8cc54; stroke:none;" d="M73 207L76 206L73 207z"/>
<path style="fill:#5cae4a; stroke:none;" d="M100.333 205.667L100.667 206.333L100.333 205.667M165 205L166 206L165 205M168 205L169 206L168 205M192 205L193 206L192 205M205 205L205 206L208 206L205 205z"/>
<path style="fill:#f7fbf1; stroke:none;" d="M74 214L76 214L77 206C72.7154 207.393 72.4544 210.056 74 214z"/>
<path style="fill:#5cae4a; stroke:none;" d="M190 206L191 207L190 206M203 206L204 207L203 206z"/>
<path style="fill:#a8cc54; stroke:none;" d="M77 207L77 211L78 211L77 207z"/>
<path style="fill:#5cae4a; stroke:none;" d="M159 207L160 208L159 207M189 207L190 208L189 207M202 207L203 208L202 207z"/>
<path style="fill:#f7fbf1; stroke:none;" d="M49 208L51 214L51 208L49 208z"/>
<path style="fill:#a8cc54; stroke:none;" d="M72.3333 208.667L72.6667 209.333L72.3333 208.667z"/>
<path style="fill:#5cae4a; stroke:none;" d="M152 209L152 210L157 209L152 209z"/>
<path style="fill:#a8cc54; stroke:none;" d="M136 212L136 213C144.264 216.182 157.923 217.164 163 208L136 212z"/>
<path style="fill:#5cae4a; stroke:none;" d="M163.333 208.667L163.667 209.333L163.333 208.667M185 208L185 209L188 209L185 208M201 208L202 209L201 208z"/>
<path style="fill:#f7fbf1; stroke:none;" d="M83.314 210.137C78.554 212.656 82.327 221.754 87.686 219.377C92.5568 217.217 88.2571 207.521 83.314 210.137z"/>
<path style="fill:#a8cc54; stroke:none;" d="M86 209L87 210L86 209z"/>
<path style="fill:#5cae4a; stroke:none;" d="M101 209L102 210L101 209M150 209L151 210L150 209M180 209L180 210L183 210L180 209M149 210L150 211L149 210M162 210L163 211L162 210M176 210L177 211L176 210M196 210L197 211L196 210z"/>
<path style="fill:#a8cc54; stroke:none;" d="M72 211L73 212L72 211z"/>
<path style="fill:#5cae4a; stroke:none;" d="M135 211L135 213L137 211L135 211M144 211L144 212L147 212L144 211M148 211L149 212L148 211M160.667 211.333L161.333 211.667L160.667 211.333M175.333 211.667L175.667 212.333L175.333 211.667M190 211L190 212L194 212L190 211z"/>
<path style="fill:#a8cc54; stroke:none;" d="M237 211L238 212L237 211z"/>
<path style="fill:#f7fbf1; stroke:none;" d="M236 221C251.012 215.387 229.365 206.494 236 221z"/>
<path style="fill:#a8cc54; stroke:none;" d="M240 211L241 212L240 211M89 212L90 213L89 212z"/>
<path style="fill:#5cae4a; stroke:none;" d="M97 212L97 215L98 215L97 212M103.333 212.667L103.667 213.333L103.333 212.667M138 212L138 213L144 213L138 212M159 212L160 213L159 212M186 212L186 213L189 213L186 212z"/>
<path style="fill:#a8cc54; stroke:none;" d="M235 212L236 213L235 212M76 213L77 214L76 213M80.3333 213.667L80.6667 214.333L80.3333 213.667z"/>
<path style="fill:#5cae4a; stroke:none;" d="M136.667 213.333L137.333 213.667L136.667 213.333M155 213L155 214L158 214L155 213M174 213L175 214L174 213z"/>
<path style="fill:#a8cc54; stroke:none;" d="M232 213L233 214L232 213z"/>
<path style="fill:#5cae4a; stroke:none;" d="M138.667 214.333L139.333 214.667L138.667 214.333M153.667 214.333L154.333 214.667L153.667 214.333M185 214L186 215L185 214z"/>
<path style="fill:#208e45; stroke:none;" d="M203 214L204 215L203 214z"/>
<path style="fill:#a8cc54; stroke:none;" d="M231 214L232 215L231 214M234 214L235 215L234 214z"/>
<path style="fill:#f7fbf1; stroke:none;" d="M247.278 215.175C245.05 216.396 245.87 220.592 248.621 219.504C251.349 218.425 250.209 213.569 247.278 215.175z"/>
<path style="fill:#5cae4a; stroke:none;" d="M55 215L59 229C65.8214 229.293 66.3877 236.199 71 240C69.4727 232.079 63.3048 217.184 55 215M104 215L105 216L104 215M141.667 215.333L142.333 215.667L141.667 215.333M147 215L147 216L153 216L147 215M172 215L173 216L172 215M184 215L185 216L184 215z"/>
<path style="fill:#208e45; stroke:none;" d="M199 215L199 216L202 216L199 215z"/>
<path style="fill:#5cae4a; stroke:none;" d="M44 216L45 217L44 216z"/>
<path style="fill:#a8cc54; stroke:none;" d="M90 216L91 217L90 216z"/>
<path style="fill:#5cae4a; stroke:none;" d="M98 216L98 219L99 219L98 216M105 216L106 217L105 216M171 216L172 217L171 216M182.667 216.333L183.333 216.667L182.667 216.333z"/>
<path style="fill:#f7fbf1; stroke:none;" d="M218 222L220 222L222 216C218.464 217.073 217.46 218.325 218 222z"/>
<path style="fill:#a8cc54; stroke:none;" d="M230 216L231 217L230 216z"/>
<path style="fill:#5cae4a; stroke:none;" d="M242.333 216.667L242.667 217.333L242.333 216.667z"/>
<path style="fill:#a8cc54; stroke:none;" d="M81 217L82 218L81 217z"/>
<path style="fill:#5cae4a; stroke:none;" d="M106 217L107 218L106 217M121 217C125.688 224.275 145.58 227.91 151 220C141.139 221.627 130.453 220.003 121 217M167 217L168 218L167 217M180 217L181 218L180 217z"/>
<path style="fill:#a8cc54; stroke:none;" d="M228.667 217.333L229.333 217.667L228.667 217.333z"/>
<path style="fill:#5cae4a; stroke:none;" d="M162.667 218.333L163.333 218.667L162.667 218.333z"/>
<path style="fill:#a8cc54; stroke:none;" d="M234 218L235 219L234 218z"/>
<path style="fill:#5cae4a; stroke:none;" d="M99 219L100 220L99 219M108 219L109 220L108 219M160.667 219.333L161.333 219.667L160.667 219.333M179 219L180 220L179 219z"/>
<path style="fill:#a8cc54; stroke:none;" d="M85 220L85 221L88 221L85 220z"/>
<path style="fill:#5cae4a; stroke:none;" d="M155.667 220.333L156.333 220.667L155.667 220.333M169 220L170 221L169 220M173.667 220.333L174.333 220.667L173.667 220.333z"/>
<path style="fill:#a8cc54; stroke:none;" d="M235 220L236 221L235 220M238 220L239 221L238 220z"/>
<path style="fill:#5cae4a; stroke:none;" d="M100.333 221.667L100.667 222.333L100.333 221.667M110 221L111 222L110 221M161 221L161 222L167 222L161 221M155 222L155 223L158 223L155 222M174 222L175 223L174 222M178 222L179 223L178 222z"/>
<path style="fill:#208e45; stroke:none;" d="M192 222L191 224L193 224L192 222z"/>
<path style="fill:#5cae4a; stroke:none;" d="M111.333 223.667L111.667 224.333L111.333 223.667M172 223L172 226L173 226L172 223M180 223L180 224L183 224L180 223M100 224L101 225L100 224M47 225L48 226L47 225M112 225L113 226L112 225M116 225L117 226L116 225M120.333 225.667L120.667 226.333L120.333 225.667z"/>
<path style="fill:#a8cc54; stroke:none;" d="M83.6667 226.333L84.3333 226.667L83.6667 226.333z"/>
<path style="fill:#5cae4a; stroke:none;" d="M113 226L114 227L113 226M173 228L176 226L173 228z"/>
<path style="fill:#f7fbf1; stroke:none;" d="M82 227L88 232L89 231L82 227z"/>
<path style="fill:#5cae4a; stroke:none;" d="M115 227L116 228L115 227M124 227L125 228L124 227z"/>
<path style="fill:#f7fbf1; stroke:none;" d="M64 239C70.8813 224.428 50.8024 232.344 64 239z"/>
<path style="fill:#a8cc54; stroke:none;" d="M62 228L63 229L62 228M81 228L82 229L81 228z"/>
<path style="fill:#208e45; stroke:none;" d="M102 228L103 229L102 228z"/>
<path style="fill:#5cae4a; stroke:none;" d="M125 228L126 229L125 228M167.667 228.333L168.333 228.667L167.667 228.333M172 228L173 229L172 228z"/>
<path style="fill:#f7fbf1; stroke:none;" d="M201 232L205 228L201 232z"/>
<path style="fill:#5cae4a; stroke:none;" d="M58 229L59 230L58 229z"/>
<path style="fill:#a8cc54; stroke:none;" d="M84 229L85 230L84 229M88 229L89 230L88 229z"/>
<path style="fill:#208e45; stroke:none;" d="M104 229L104 230L108 230L104 229z"/>
<path style="fill:#5cae4a; stroke:none;" d="M126 229L127 230L126 229M158 229L158 230L161 230L158 229M165.667 229.333L166.333 229.667L165.667 229.333M170.667 229.333L171.333 229.667L170.667 229.333z"/>
<path style="fill:#208e45; stroke:none;" d="M108 230L108 233L109 233L110 233L108 230z"/>
<path style="fill:#5cae4a; stroke:none;" d="M133 230L134 231L133 230M153 230L153 231L158 231L153 230M161 230L161 231L165 231L161 230z"/>
<path style="fill:#a8cc54; stroke:none;" d="M65 231L66 232L65 231M86 231L87 232L86 231M88 231L89 232L88 231z"/>
<path style="fill:#5cae4a; stroke:none;" d="M129 231L130 232L129 231M131 231L132 232L131 231M135 231L136 232L135 231M130 232L131 233L130 232M136 232L136 233L140 233L136 232z"/>
<path style="fill:#208e45; stroke:none;" d="M177 232L178 233L177 232z"/>
<path style="fill:#f7fbf1; stroke:none;" d="M194 232L193 240L201 239L201 237L194 232z"/>
<path style="fill:#208e45; stroke:none;" d="M110 233L111 234L110 233z"/>
<path style="fill:#5cae4a; stroke:none;" d="M140 233L140 234L145 234L140 233z"/>
<path style="fill:#f7fbf1; stroke:none;" d="M225 239L228 233C224.578 234.136 224.216 235.57 225 239z"/>
<path style="fill:#a8cc54; stroke:none;" d="M96 237L97 237L100 235L96 237M107 234L108 235L107 234z"/>
<path style="fill:#f7fbf1; stroke:none;" d="M107 235L112 237L107 235z"/>
<path style="fill:#208e45; stroke:none;" d="M157 234L158 235L157 234z"/>
<path style="fill:#f7fbf1; stroke:none;" d="M230 235C232.313 239.197 236.09 239.746 238 235L230 235M71 236L71 238L77 239C75.8643 235.578 74.43 235.216 71 236M97 235C98.1955 238.939 100.014 239.889 104 239L97 235z"/>
<path style="fill:#a8cc54; stroke:none;" d="M101 235L102 236L101 235z"/>
<path style="fill:#5cae4a; stroke:none;" d="M78.3333 236.667L78.6667 237.333L78.3333 236.667z"/>
<path style="fill:#a8cc54; stroke:none;" d="M102 236L103 237L102 236M107 236L108 237L107 236M103 237L104 238L103 237M111 237L112 238L111 237z"/>
<path style="fill:#f7fbf1; stroke:none;" d="M128.144 237.931C123.265 239.371 126.593 245.396 130.856 244.208C135.72 242.851 132.528 236.638 128.144 237.931z"/>
<path style="fill:#208e45; stroke:none;" d="M143 237L142 239L143 237z"/>
<path style="fill:#a8cc54; stroke:none;" d="M97 238L98 239L97 238z"/>
<path style="fill:#208e45; stroke:none;" d="M122 238L123 242L124 242L122 238z"/>
<path style="fill:#a8cc54; stroke:none;" d="M98 239L99 240L98 239M103 239L104 240L103 239z"/>
<path style="fill:#208e45; stroke:none;" d="M135 239L135 243L136 243L137 239L135 239M138 239L138 240L141 240L138 239z"/>
<path style="fill:#a8cc54; stroke:none;" d="M200 239L201 240L200 239M100 240L100 241L103 241L100 240z"/>
<path style="fill:#5cae4a; stroke:none;" d="M134 240L135 241L134 240z"/>
<path style="fill:#a8cc54; stroke:none;" d="M157 242C163.577 245.94 174.856 243.701 182 242C175.64 239.686 162.999 238.577 157 242M198 240L199 241L198 240z"/>
<path style="fill:#f7fbf1; stroke:none;" d="M213.039 240.801C208.494 242.341 208.392 249.934 213.961 248.288C218.632 246.907 218.627 238.907 213.039 240.801M62.3326 242.086C58.8573 244.14 62.4338 248.826 65.6674 246.914C69.1427 244.86 65.5662 240.174 62.3326 242.086z"/>
<path style="fill:#a8cc54; stroke:none;" d="M134 241L135 242L134 241z"/>
<path style="fill:#5cae4a; stroke:none;" d="M58 242L59 243L58 242z"/>
<path style="fill:#f7fbf1; stroke:none;" d="M178 245L183 242L178 245M73 243C73.907 259.52 89.458 243.536 73 243z"/>
<path style="fill:#a8cc54; stroke:none;" d="M114 243L114 246L115 246L116 243L114 243M133 243L134 244L133 243z"/>
<path style="fill:#f7fbf1; stroke:none;" d="M115 244L120 248L115 244z"/>
<path style="fill:#a8cc54; stroke:none;" d="M127.667 244.333L128.333 244.667L127.667 244.333M132 244L133 245L132 244M177 244L178 245L177 244M194 244L195 245L194 244z"/>
<path style="fill:#f7fbf1; stroke:none;" d="M200 251C197.922 235.142 186.196 257.217 200 251z"/>
<path style="fill:#a8cc54; stroke:none;" d="M198 244L199 245L198 244z"/>
<path style="fill:#208e45; stroke:none;" d="M132 245L133 246L132 245z"/>
<path style="fill:#a8cc54; stroke:none;" d="M178 245L178 246L181 246L178 245z"/>
<path style="fill:#5cae4a; stroke:none;" d="M82 246L82 251L102 262C99.1571 251.771 90.7019 249.545 82 246z"/>
<path style="fill:#a8cc54; stroke:none;" d="M82.3333 248.667L82.6667 249.333L82.3333 248.667M167 249L167 250L171 250L167 249z"/>
<path style="fill:#f7fbf1; stroke:none;" d="M165 254C168.692 253.88 170.777 253.687 172 250C168.308 250.12 166.223 250.313 165 254M116 252C117.771 263.199 128.905 254.057 116 252z"/>
<path style="fill:#a8cc54; stroke:none;" d="M119.667 252.333L120.333 252.667L119.667 252.333z"/>
<path style="fill:#f7fbf1; stroke:none;" d="M100 253C100.659 256.952 102.109 257.886 106 257L100 253z"/>
<path style="fill:#a8cc54; stroke:none;" d="M115.333 253.667L115.667 254.333L115.333 253.667M122 253L123 254L122 253z"/>
<path style="fill:#f7fbf1; stroke:none;" d="M137 259C151.552 258.828 137.87 248.085 137 259z"/>
<path style="fill:#a8cc54; stroke:none;" d="M123 254L124 255L123 254M124 255L124 258L125 258L124 255M178 255L178 256L180 259L174 257C177.529 260.563 182.772 258.158 178 255M176 256L177 257L176 256z"/>
<path style="fill:#f7fbf1; stroke:none;" d="M176 259L180 256L176 259M190 263C193.932 262.188 195.639 260.786 197 257C192.418 256.345 190.685 258.614 190 263M175 258C161.286 254.105 170.307 271.048 175 258z"/>
<path style="fill:#a8cc54; stroke:none;" d="M119 258L120 259L119 258M123 258L124 259L123 258z"/>
<path style="fill:#5cae4a; stroke:none;" d="M197 258L198 259L197 258z"/>
<path style="fill:#a8cc54; stroke:none;" d="M129 259L128 261L129 259z"/>
<path style="fill:#f7fbf1; stroke:none;" d="M129 260L134 263L129 260z"/>
<path style="fill:#a8cc54; stroke:none;" d="M131 259L132 260L131 259z"/>
<path style="fill:#5cae4a; stroke:none;" d="M164 259L161 260L163 266L167 265L164 259z"/>
<path style="fill:#f7fbf1; stroke:none;" d="M102 260L109 265C109.76 260.029 106.175 260.049 102 260M139 264C153.047 271.7 142.332 253.994 139 264z"/>
<path style="fill:#a8cc54; stroke:none;" d="M174.333 260.667L174.667 261.333L174.333 260.667z"/>
<path style="fill:#5cae4a; stroke:none;" d="M148 265L148 266L162 267C157.874 260.835 153.697 261.091 148 265z"/>
<path style="fill:#f7fbf1; stroke:none;" d="M158 261L161 265L162 262L158 261z"/>
<path style="fill:#a8cc54; stroke:none;" d="M161 261L162 262L161 261z"/>
<path style="fill:#5cae4a; stroke:none;" d="M110 262L109 266L112 266L110 262z"/>
<path style="fill:#a8cc54; stroke:none;" d="M130 262L131 263L130 262M173 262L174 263L173 262M131 263L131 264L134 264L131 263M158 263L159 264L158 263M171.667 263.333L172.333 263.667L171.667 263.333M109 264L110 265L109 264M159 264L160 265L159 264z"/>
<path style="fill:#5cae4a; stroke:none;" d="M190.667 264.333L191.333 264.667L190.667 264.333z"/>
<path style="fill:#000000; stroke:none;" d="M189.667 265.333L190.333 265.667L189.667 265.333M185 266L185 267L188 267L185 266z"/>
<path style="fill:#f7fbf1; stroke:none;" d="M117 267L121 269L117 267M130.661 268.042C127.795 270.379 132.9 273.945 135.339 271.958C138.205 269.621 133.1 266.055 130.661 268.042M155 269L155 271L164 272C162.513 267.52 159.072 267.81 155 269z"/>
<path style="fill:#5cae4a; stroke:none;" d="M114 269L115 270L114 269M128 273L128 274L132 274L128 273z"/>
</svg>
